<svg id="svg" version="1.1" xmlns="http://www.w3.org/2000/svg" xmlns:xlink="http://www.w3.org/1999/xlink" width="400" height="400" viewBox="0, 0, 400,400"><g id="svgg"><path id="path0" d="M59.179 263.714 C 41.036 277.809,26.052 289.481,25.882 289.651 C 25.692 289.841,26.573 291.800,28.165 294.730 C 73.018 377.283,165.975 417.078,258.783 393.459 C 286.543 386.394,311.950 373.179,332.917 354.899 C 337.032 351.311,337.015 351.928,333.083 348.909 C 331.296 347.537,316.811 336.285,300.894 323.905 L 271.955 301.396 268.061 303.759 C 241.409 319.931,205.914 324.906,175.049 316.797 C 138.743 307.257,108.232 279.602,94.369 243.667 C 93.414 241.192,92.528 238.924,92.400 238.627 C 92.216 238.201,85.196 243.502,59.179 263.714 " stroke="none" fill="#34ab54" fill-rule="evenodd"></path><path id="path1" d="M204.000 204.333 L 204.000 242.000 257.833 242.000 C 310.817 242.000,311.667 242.010,311.667 242.644 C 311.667 243.704,309.799 250.584,308.493 254.333 C 302.495 271.557,291.088 287.148,276.500 298.056 C 274.300 299.702,272.500 301.176,272.500 301.332 C 272.500 301.561,334.894 350.277,336.296 351.143 C 337.182 351.691,346.164 342.480,353.466 333.537 C 387.378 292.004,402.272 231.339,393.411 170.833 L 392.825 166.833 298.413 166.749 L 204.000 166.666 204.000 204.333 " stroke="none" fill="#4484f4" fill-rule="evenodd"></path><path id="path2" d="M23.670 114.083 C -2.510 169.818,-2.508 230.185,23.674 285.927 C 24.646 287.995,25.566 289.645,25.720 289.593 C 25.873 289.542,30.837 285.740,36.750 281.145 C 42.662 276.550,57.579 264.964,69.898 255.399 L 92.296 238.008 91.469 235.587 C 84.955 216.538,84.280 192.403,89.661 171.000 C 90.376 168.158,91.272 164.941,91.652 163.849 C 92.192 162.300,92.251 161.812,91.922 161.623 C 91.690 161.489,76.725 149.898,58.667 135.866 C 40.608 121.833,25.743 110.348,25.632 110.343 C 25.522 110.337,24.638 112.021,23.670 114.083 " stroke="none" fill="#fbbb04" fill-rule="evenodd"></path><path id="path3" d="M191.667 0.217 C 191.025 0.278,188.550 0.490,186.167 0.688 C 126.961 5.596,71.754 38.461,38.099 88.833 C 33.719 95.390,25.667 109.135,25.667 110.055 C 25.667 110.364,91.634 161.500,92.031 161.500 C 92.225 161.500,92.915 160.075,93.565 158.333 C 115.644 99.195,177.011 67.079,236.194 83.689 C 252.021 88.131,264.497 95.182,279.740 108.303 L 281.060 109.438 309.530 80.970 C 325.189 65.312,337.987 52.351,337.972 52.167 C 337.894 51.234,324.348 40.026,317.167 34.952 C 288.099 14.415,255.702 3.012,218.833 0.341 C 214.624 0.036,194.539 -0.055,191.667 0.217 " stroke="none" fill="#ec4434" fill-rule="evenodd"></path><path id="path4" d="" stroke="none" fill="#3c89e3" fill-rule="evenodd"></path></g></svg>